PathFileType	4	(X/Y/Z)	53_2_25_p1_0-345_filt_butterworth.trc
DataRate	CameraRate	NumFrames	NumMarkers	Units	OrigDataRate	OrigDataStartFrame	OrigNumFrames
46.0	46.0	6	27	m	46.0	215	345
Frame#	Time	RHip			RKnee			RAnkle			RBigToe			RSmallToe			RHeel			LHip			LKnee			LAnkle			LBigToe			LSmallToe			LHeel			Neck			Head			Nose			RShoulder			RElbow			RWrist			RThumb			RIndex			RPinky			LShoulder			LElbow			LWrist			LThumb			LIndex			LPinky			
		X1	Y1	Z1	X2	Y2	Z2	X3	Y3	Z3	X4	Y4	Z4	X5	Y5	Z5	X6	Y6	Z6	X7	Y7	Z7	X8	Y8	Z8	X9	Y9	Z9	X10	Y10	Z10	X11	Y11	Z11	X12	Y12	Z12	X13	Y13	Z13	X14	Y14	Z14	X15	Y15	Z15	X16	Y16	Z16	X17	Y17	Z17	X18	Y18	Z18	X19	Y19	Z19	X20	Y20	Z20	X21	Y21	Z21	X22	Y22	Z22	X23	Y23	Z23	X24	Y24	Z24	X25	Y25	Z25	X26	Y26	Z26	X27	Y27	Z27	
215	4.673913043478261	0.39070100648430794	0.6151236287187198	0.6654323351037441	0.39721676040951936	0.796208507567734	1.1303640087526468	0.36084076560538975	0.8901641174310891	1.540556833020689	0.32156241985952877	0.7399663954226126	1.5735369328097668	0.37483752668728965	0.7269130096686153	1.568724112261794	0.32863467809465563	0.9695590642647093	1.6033081110776355	0.2005873960792065	0.6045891597631715	0.6565899395532705	0.15832163454178447	0.7736654785744741	1.1332892057749786	0.15629393801061242	0.8654636347973726	1.5444969930451777	0.17477491821411756	0.7482053938499866	1.5735269296002972	0.11828229071047586	0.7490546466206914	1.5633977370605932	0.16917041047252188	0.9146892544935917	1.5874450067191836	0.29763922819409083	0.5912981027561103	0.13230950115693124	0.31257954658725795	0.4739840053542459	-0.068683602189063	0.31537648632538673	0.4419257171363845	0.05047752278655542	0.41682137494596205	0.5595824367983785	0.16497300691385952	0.710625875320344	0.5956934268509388	0.13937584807139408	0.5526153132958533	0.3758054958539001	0.1969532192491085	0.41760445390809686	0.32257321454361415	0.2686872473757043	0.43100802378128145	0.3351904139836858	0.28966921669850465	0.4921396234898125	0.3434788808666567	0.31382508545818444	0.1602592277539942	0.579833728443115	0.18949647610684245	-0.05160550410155663	0.40424982318982067	0.1503167162422333	0.14376093969424683	0.344015412212847	0.1621227660733782	0.23838887480592752	0.3557250672786486	0.23791003828142357	0.25207634793501127	0.368300036718424	0.22868267473007986	0.20298990211497284	0.31087836213447045	0.25431379540228405
216	4.695652173913044	0.39094218925536034	0.6229186757242835	0.6658324319858004	0.3971978239925389	0.795876423622387	1.130375125369202	0.3621176214221075	0.8905047744328958	1.5409093055583365	0.32155296932739014	0.7401938923668795	1.5735762673831513	0.3745492506237933	0.7290406332103636	1.5693736903890863	0.3286338364682824	0.9692470986097563	1.6032818162712295	0.20067698315278346	0.604776027599939	0.6566371039634211	0.15813076999695075	0.7720113132262026	1.131586788035887	0.1564314543719374	0.8654722442165381	1.5445184352672578	0.1746818282968047	0.7479675971005413	1.5733275938329867	0.11828551831703235	0.7489661906024558	1.563364555921173	0.16936705244822856	0.9148317449534628	1.587497800975339	0.2980311777548906	0.5917474171529387	0.13452630218003192	0.3123892972140773	0.4818848190037037	-0.07004651940289996	0.3156192674207971	0.4425136309127313	0.0504729713432884	0.4168764517977369	0.5710142024201502	0.1647731645766125	0.7138777801303524	0.578689580225094	0.14337701055712346	0.5537529772212785	0.37217562408490273	0.21042739510123581	0.4289550062754907	0.34776679195158156	0.2889751846124236	0.44307011201147045	0.3632666168535124	0.30489303259660644	0.4928605051520417	0.3460380378221744	0.31751491422930805	0.1613659448249674	0.5804387772795431	0.19079133293938416	-0.05417227583339615	0.39669886306709823	0.1532698621313687	0.14358068649982028	0.33638418818627674	0.17899392811940268	0.2377718392974338	0.3518344956929096	0.24726019330579574	0.2525325773338202	0.3675051626870564	0.2454383737983989	0.2043531178030069	0.31664780040588464	0.2720998968494085
217	4.717391304347826	0.39138170158232083	0.6243551911413788	0.665877434611468	0.3971818191738725	0.7958976985123848	1.130437501537346	0.36241842026413257	0.8906291101595313	1.540996392349197	0.32153808761335634	0.7402541419766693	1.5735903127180262	0.3733868346739766	0.7345013157578848	1.57192700751334	0.3285944222833629	0.968999302207218	1.6031592342238572	0.2006929066987699	0.6054231740337417	0.6569093474007105	0.1580993674922786	0.7708483523184817	1.1310325332708577	0.15627744836310226	0.8654019367092766	1.5443989506929094	0.17467484823386764	0.7483383683317143	1.5737588625389705	0.11827848422452829	0.7491264708925369	1.563426111896788	0.16956001561148404	0.9147628724431821	1.587386938189526	0.2981643103663707	0.5911203383462938	0.1363561875831882	0.31250432896635416	0.4866737968654421	-0.07077851067721753	0.3157923400829511	0.4430714909222822	0.05039865395608879	0.4167419786428268	0.5760899893251995	0.16577655944831687	0.7155347831252187	0.5733800872750683	0.14707955790063698	0.5555881066649304	0.3767149802670912	0.2139368464462325	0.4467353627812339	0.38050169520579435	0.3030196934722191	0.46050269285253276	0.3916469825169455	0.3104533047576516	0.4936473773986593	0.35533051245806113	0.3175199866756361	0.16172566617478548	0.5808592741312854	0.19312759322987086	-0.05920300428253461	0.3958905235588885	0.1557576247490997	0.14248308466033127	0.3415758366718457	0.19539124318443	0.23530030542956618	0.3422760632152859	0.2611327479092874	0.2509911858548526	0.3643714718854422	0.26733370189313566	0.201442066677411	0.33432501990104857	0.2895056577219007
218	4.739130434782608	0.39131973239479156	0.6242242014032061	0.665898690758174	0.39717738536323766	0.7960957877654293	1.1304713349732787	0.3625009262673845	0.890478703825718	1.5407566991072914	0.3215225041176371	0.7401582984683621	1.5735646953653804	0.3728697795932372	0.7410983785292894	1.5762198141182455	0.3285531055862975	0.9691280754361078	1.6020916096268323	0.20065098881691537	0.6059529780906139	0.6572938344027265	0.15826308551737456	0.7705511973858208	1.1300743352231737	0.1550366090764725	0.8650659833438885	1.5441677057245298	0.17487525871934875	0.749532696809925	1.575084490458715	0.11827513156914055	0.7494005709342403	1.5635260348549835	0.16954584194636713	0.9141258508044103	1.5870218361846584	0.2981277963408099	0.5875475898232816	0.13757751971241208	0.31260250457041505	0.4875612788437452	-0.07081857869585943	0.31560342875640074	0.4424995036186596	0.050599646123453246	0.41595720691755345	0.5759859581315098	0.16810020224766178	0.7142822822981313	0.580309882980774	0.14681936062621992	0.5574538028849182	0.37996280489090173	0.20325679776453742	0.4606821384062584	0.3821308265389292	0.3008061049363584	0.47571340043653176	0.3920634461994682	0.30323624285838235	0.49556350228115836	0.35877401060469943	0.3099080228623633	0.1614190228172261	0.5810320187875198	0.19483430381273373	-0.06578733010099937	0.40660926640908024	0.16480267702429974	0.13788992880167947	0.36550550237723733	0.209895678046076	0.2311643778675999	0.34440285729922737	0.27887922707805024	0.2459106299670164	0.3626937110624192	0.28861756332833444	0.19192757669703225	0.36435318072211736	0.30706958360461856
219	4.760869565217392	0.3903484674006102	0.6281893096057188	0.6661811548840111	0.39716123182930113	0.7962055382257327	1.1304952746087478	0.3625308239085746	0.8899175436783264	1.5394137128440097	0.3215432176299986	0.7401666904596015	1.5736069719190318	0.37464582751725206	0.7448491885965913	1.5798586739116547	0.32850361819209384	0.9695597700849767	1.600352759238282	0.20048282146818708	0.6053652570482697	0.6570951778593489	0.15855775314334702	0.7705872720775194	1.1275542121667366	0.1531095454262323	0.8645581603367191	1.5439350267251963	0.1750734067203075	0.7504601563519353	1.5759749841157507	0.1182579848609599	0.7495595260926526	1.5636695324928145	0.1693800540666553	0.9133351404100638	1.5866449275431966	0.29801045273314336	0.5792028118193225	0.13864411159505324	0.31266085437876806	0.48622156834587815	-0.07079555598213379	0.3146353501140148	0.43934332681748095	0.051364473037809485	0.41509322272496724	0.5744914299163355	0.17031811194257138	0.7063080460972319	0.6045107464208912	0.1424694831498138	0.5593523852797656	0.378367170055419	0.17804778706671318	0.4661434309463681	0.3402317960087287	0.2734258991512101	0.4846461244994572	0.3523647470415353	0.2748820215428932	0.5006634145067032	0.34271675540026814	0.28196487662256836	0.16104733825833262	0.5805990468333305	0.19537450488861446	-0.07040796849841219	0.4205832540719599	0.18654344153877606	0.1315689410098068	0.3965640988840297	0.22635557960376704	0.2264147723833077	0.3684671406564866	0.2993381569995308	0.23894461860598773	0.3640734840575005	0.3095226663665556	0.17963544892005467	0.39754039831667787	0.32989513123778225
220	4.782608695652174	0.3887831503664232	0.6349102375472533	0.6664888068706649	0.3971221659928551	0.7962283181065826	1.1305119880371037	0.3616462906010033	0.8890716190326231	1.537288537501173	0.32161205877279153	0.7403099920244909	1.5736983526603945	0.3774619769582037	0.7450603395750659	1.580599702622951	0.32842521883024156	0.9699405865530653	1.5991742024021045	0.20025929550885505	0.6041702223556424	0.6556790331075327	0.15884086974591238	0.7705860583432911	1.1253225338859834	0.15184998619786713	0.8642218972146953	1.5438260828083186	0.17507346337543	0.7504200455856269	1.5756989568974957	0.11821561149491072	0.7495581595311764	1.563846710748493	0.1693020038793223	0.9131283158744359	1.5865713411316071	0.2978850243973466	0.5699433745773981	0.13893753302091194	0.3125970196027326	0.48227780409696885	-0.07139419939431957	0.3131636471942045	0.4345776597240419	0.05240107711282268	0.4160457051490183	0.573674061956091	0.1739336133444639	0.6939721743657078	0.6298693367122108	0.13627536324724898	0.5621589255057877	0.37632261447501875	0.1410375358142295	0.47063355350390296	0.29315283501782463	0.2213902091801461	0.4879621345525791	0.30091808249236485	0.2210869131565861	0.5098121096465011	0.3180831564466149	0.2254550404196239	0.1608854778111831	0.5795641076231972	0.19606299370156993	-0.07101022765817407	0.42488889319238476	0.21450191256767145	0.12764535425235393	0.41388112207182104	0.2478543462660915	0.22399324702409515	0.4000954996688125	0.3208069657699755	0.2322197883237109	0.3658701414329233	0.3321881814082024	0.17108364584681873	0.4180604221136624	0.3556758409575046
